HIERARCHY
ROOT SimulationBone
{
	OFFSET 0.000000 0.000000 0.000000
	CHANNELS 6 Xposition Yposition Zposition Zrotation Yrotation Xrotation 
	JOINT Hips
	{
		OFFSET 0.000000 0.000000 0.000000
		CHANNELS 6 Xposition Yposition Zposition Zrotation Yrotation Xrotation 
		JOINT LeftUpLeg
		{
			OFFSET 0.103457 1.857824 10.548504
			CHANNELS 3 Zrotation Yrotation Xrotation
			JOINT LeftLeg
			{
				OFFSET 43.500000 -0.000038 -0.000017
				CHANNELS 3 Zrotation Yrotation Xrotation
				JOINT LeftFoot
				{
					OFFSET 42.372200 0.000011 0.000019
					CHANNELS 3 Zrotation Yrotation Xrotation
					JOINT LeftToe
					{
						OFFSET 17.300011 0.000002 -0.000008
						CHANNELS 3 Zrotation Yrotation Xrotation
						End Site
						{
							OFFSET 0.000000 0.000000 0.000000
						}
					}
				}
			}
		}
		JOINT RightUpLeg
		{
			OFFSET 0.103457 1.857822 -10.548492
			CHANNELS 3 Zrotation Yrotation Xrotation
			JOINT RightLeg
			{
				OFFSET 43.500038 -0.000027 0.000036
				CHANNELS 3 Zrotation Yrotation Xrotation
				JOINT RightFoot
				{
					OFFSET 42.372261 0.000015 0.000010
					CHANNELS 3 Zrotation Yrotation Xrotation
					JOINT RightToe
					{
						OFFSET 17.299988 -0.000006 0.000008
						CHANNELS 3 Zrotation Yrotation Xrotation
						End Site
						{
							OFFSET 0.000000 0.000000 0.000000
						}
					}
				}
			}
		}
		JOINT Spine
		{
			OFFSET 6.901965 -2.603737 0.000006
			CHANNELS 3 Zrotation Yrotation Xrotation
			JOINT Spine1
			{
				OFFSET 12.588104 -0.000005 0.000007
				CHANNELS 3 Zrotation Yrotation Xrotation
				JOINT Spine2
				{
					OFFSET 12.343202 0.000026 -0.000008
					CHANNELS 3 Zrotation Yrotation Xrotation
					JOINT Neck
					{
						OFFSET 25.832890 -0.000029 -0.000007
						CHANNELS 3 Zrotation Yrotation Xrotation
						JOINT Head
						{
							OFFSET 11.766619 0.000021 0.000012
							CHANNELS 3 Zrotation Yrotation Xrotation
							End Site
							{
								OFFSET 0.000000 0.000000 0.000000
							}
						}
					}
					JOINT LeftShoulder
					{
						OFFSET 19.745909 -1.480377 6.000106
						CHANNELS 3 Zrotation Yrotation Xrotation
						JOINT LeftArm
						{
							OFFSET 11.284110 -0.000009 -0.000020
							CHANNELS 3 Zrotation Yrotation Xrotation
							JOINT LeftForeArm
							{
								OFFSET 33.000053 0.000014 0.000021
								CHANNELS 3 Zrotation Yrotation Xrotation
								JOINT LeftHand
								{
									OFFSET 25.200008 0.000006 -0.000004
									CHANNELS 3 Zrotation Yrotation Xrotation
									End Site
									{
										OFFSET 0.000000 0.000000 0.000000
									}
								}
							}
						}
					}
					JOINT RightShoulder
					{
						OFFSET 19.746101 -1.480381 -6.000081
						CHANNELS 3 Zrotation Yrotation Xrotation
						JOINT RightArm
						{
							OFFSET 11.284131 -0.000022 0.000003
							CHANNELS 3 Zrotation Yrotation Xrotation
							JOINT RightForeArm
							{
								OFFSET 33.000095 0.000014 0.000005
								CHANNELS 3 Zrotation Yrotation Xrotation
								JOINT RightHand
								{
									OFFSET 25.199774 0.000153 0.000423
									CHANNELS 3 Zrotation Yrotation Xrotation
									End Site
									{
										OFFSET 0.000000 0.000000 0.000000
									}
								}
							}
						}
					}
				}
			}
		}
	}
}
MOTION
Frames: 5
Frame Time: 0.033333
-274.699638 0.000000 395.860777 180.000000 -66.244244 180.000000 -7.147498 75.235001 1.809366 86.784123 3.166992 -170.254463 164.285666 -0.459196 171.626808 -100.330404 1.933065 -0.326361 92.310048 0.415560 1.516186 21.454548 0.003090 0.000000 132.583917 -3.378408 -171.389349 -78.520121 -2.757709 -0.324491 100.409894 -0.005687 -4.062891 21.454558 -0.003114 -0.000016 12.530296 0.377363 -0.420424 15.045324 0.806168 -0.788124 14.727233 0.801543 -0.792975 5.943331 12.384578 24.057043 -26.952275 -27.073832 38.998949 -170.847893 -77.413200 -10.820066 -21.837143 58.137150 22.387731 -51.142694 -20.155390 2.132910 2.443678 -18.407273 8.276157 164.896954 75.115374 -14.023939 -6.397408 -52.158132 -28.542602 -46.059384 22.436009 -2.149890 0.559413 9.842430 -17.966698 
-275.096520 0.000000 403.564437 180.000000 -69.283460 180.000000 -7.760163 77.817284 1.644222 86.451947 1.878942 -173.448203 154.237679 -1.082504 171.059684 -100.992502 1.698183 -0.671170 92.744639 0.621821 1.420164 21.454546 0.003087 0.000004 139.849216 -2.516202 -172.955867 -75.306565 -3.406665 -0.113380 102.005201 0.014441 -2.730683 21.454560 -0.003117 -0.000018 12.346056 0.125191 -0.017072 14.679253 0.251470 -0.018112 14.361161 0.251491 -0.019624 7.159099 12.069797 24.978951 -26.112187 -28.309621 40.101133 -169.915039 -77.388714 -11.771983 -12.498740 58.425185 32.608600 -49.201285 -18.471972 1.955927 2.455793 -15.417967 12.585305 162.816888 75.342949 -16.138943 -7.486392 -50.758585 -23.424248 -58.000566 22.153071 -2.546578 -2.046562 13.265201 -22.377066 
-275.529438 0.000000 411.263531 180.000000 -72.268805 180.000000 -8.126826 80.521637 1.388129 86.550337 0.781290 -175.890935 145.556618 -1.597193 171.727580 -96.470610 0.893255 0.259798 92.639345 -0.053492 0.984492 21.454545 0.003096 0.000003 148.046591 -1.353600 -174.323134 -70.463141 -3.681314 -0.000077 101.883500 0.061101 -1.013699 21.454558 -0.003114 -0.000018 12.176288 -0.078377 0.366585 14.339151 -0.201687 0.720598 14.021074 -0.197196 0.721816 8.485042 11.588367 25.484191 -25.773837 -29.146145 40.740139 -167.350099 -77.824418 -14.387949 -2.822630 57.066681 45.441593 -50.750689 -17.917770 1.969515 2.768388 -14.216994 7.907607 162.454110 76.356577 -16.464113 -7.549644 -50.496504 -16.373258 -70.830899 18.908557 -2.836781 -4.562303 9.675010 -28.251618 
-275.989588 0.000000 418.946432 180.000000 -75.207673 180.000000 -8.060979 83.039909 1.034498 86.822034 0.040309 -177.740967 139.451945 -1.382695 173.381388 -86.925133 -0.791505 0.990769 90.809776 -0.478085 1.061397 21.454555 0.003101 -0.000001 156.832399 -0.249202 -174.858375 -64.401458 -3.991916 -0.023032 99.754633 0.188324 0.501321 21.454562 -0.003105 -0.000017 11.944340 -0.226595 0.746883 13.872531 -0.541237 1.461152 13.554525 -0.532267 1.464397 9.448098 11.068796 25.475798 -24.743472 -29.101629 40.255888 -162.697005 -78.931941 -19.122091 4.418744 55.186422 55.624408 -52.792284 -16.409931 1.936856 2.774333 -14.945058 5.704055 162.111084 77.282463 -16.771005 -6.911771 -50.443003 -10.398305 -80.984604 14.098213 -2.936179 -5.687820 10.247306 -31.543559 
-276.468166 0.000000 426.601515 180.000000 -78.107505 180.000000 -7.349170 85.197777 0.696276 87.425822 -0.165006 -178.754798 136.735879 -0.817496 175.040004 -73.135207 -2.260076 1.245905 87.726226 -0.727639 0.305022 21.454553 0.003092 0.000001 166.118096 0.890506 -175.073226 -57.857563 -3.460403 -0.789914 95.610696 1.061582 3.809434 21.454555 -0.003117 -0.000020 11.664478 -0.235410 1.042848 13.310971 -0.589411 2.051616 12.993092 -0.576869 2.055145 11.321646 10.503703 25.094568 -25.358163 -28.740347 39.764238 -156.260002 -80.495207 -25.641100 9.450546 53.861178 63.653784 -54.183792 -15.743064 1.939716 2.202006 -13.527946 7.490973 160.581040 77.564099 -18.313972 -5.368921 -49.621717 -5.297236 -88.239310 9.035923 -2.900986 -5.843209 9.399771 -32.678244 
